<svg xmlns="http://www.w3.org/2000/svg" width="1024" height="1024" viewBox="0 0 1024 1024">
  <g fill="#D2C1B6" fill-rule="nonzero">
    <path d="M 360 167 L 329 183 L 300 202 L 279 219 L 238 262 L 206 310 L 182 363 L 167 419 L 163 449 L 162 492 L 168 546 L 177 583 L 188 614 L 213 665 L 249 715 L 289 754 L 342 790 L 372 805 L 403 817 L 434 826 L 470 833 L 522 836 L 522 793 L 470 788 L 447 783 L 407 770 L 356 744 L 317 715 L 277 672 L 251 632 L 230 585 L 217 536 L 212 491 L 213 453 L 221 404 L 234 364 L 253 325 L 275 292 L 303 260 L 343 227 L 346 228 L 346 525 L 581 525 L 581 487 L 398 487 L 392 485 L 392 156 Z"/>
    <path d="M 444 134 L 444 178 L 492 173 L 521 173 L 560 177 L 591 184 L 613 191 L 639 202 L 670 219 L 708 247 L 743 282 L 771 321 L 793 364 L 807 404 L 815 440 L 818 462 L 819 516 L 815 550 L 810 573 L 802 599 L 792 623 L 772 659 L 748 690 L 728 710 L 703 730 L 683 742 L 683 744 L 709 784 L 712 784 L 737 769 L 768 744 L 796 714 L 811 694 L 826 670 L 840 642 L 853 608 L 861 578 L 868 536 L 869 470 L 866 441 L 860 409 L 853 383 L 840 348 L 823 313 L 814 298 L 796 272 L 778 250 L 749 221 L 731 206 L 684 175 L 658 162 L 631 151 L 599 141 L 570 135 L 523 130 L 483 130 Z"/>
    <path d="M 416 365 L 416 369 L 432 413 L 557 413 L 572 415 L 595 422 L 613 431 L 628 441 L 636 448 L 650 465 L 657 480 L 658 486 L 657 506 L 651 522 L 642 537 L 636 545 L 620 561 L 610 569 L 594 579 L 584 584 L 559 593 L 533 598 L 499 599 L 499 601 L 578 779 L 603 837 L 659 837 L 659 833 L 656 826 L 654 824 L 650 813 L 616 741 L 580 660 L 571 643 L 570 637 L 572 635 L 586 632 L 612 622 L 629 613 L 646 602 L 661 590 L 675 576 L 690 556 L 702 532 L 706 520 L 709 502 L 709 486 L 707 473 L 703 460 L 695 443 L 683 426 L 666 409 L 653 399 L 637 389 L 621 381 L 589 370 L 556 365 Z"/>
  </g>
</svg>
